<svg width="1326" height="274" viewBox="0 0 1326 274" fill="none" xmlns="http://www.w3.org/2000/svg">
<path opacity="0.2" d="M183.372 83.6562V85.6562H185.622L185.358 83.4219L183.372 83.6562ZM139.821 83.6562L137.841 83.9358L138.084 85.6562H139.821V83.6562ZM134.949 68.642L133.198 69.6089L133.204 69.62L134.949 68.642ZM125.503 57.3068L124.244 58.8607L124.244 58.8607L125.503 57.3068ZM112.179 50.1477L111.547 52.0451L111.554 52.0476L112.179 50.1477ZM68.429 55.517L69.5319 57.1855L69.5416 57.179L68.429 55.517ZM50.233 78.1875L52.0661 78.9872L52.0681 78.9827L50.233 78.1875ZM50.233 150.773L48.3998 151.572L48.4043 151.583L50.233 150.773ZM68.5284 173.145L67.4455 174.826L67.4455 174.826L68.5284 173.145ZM111.682 178.415L111.095 176.503L111.088 176.505L111.682 178.415ZM124.906 171.753L126.115 173.346L126.124 173.34L126.132 173.333L124.906 171.753ZM134.452 160.915L132.744 159.874L132.738 159.884L132.732 159.894L134.452 160.915ZM139.821 146.398L139.83 144.398L138.155 144.39L137.854 146.038L139.821 146.398ZM183.372 146.597L185.358 146.836L185.627 144.607L183.381 144.597L183.372 146.597ZM174.92 173.642L173.145 172.721L173.143 172.726L174.92 173.642ZM156.923 196.81L158.263 198.294L158.264 198.294L156.923 196.81ZM130.077 212.918L130.784 214.788L130.791 214.786L130.077 212.918ZM46.2557 206.455L45.2565 208.187L45.2599 208.189L46.2557 206.455ZM12.4489 170.759L10.68 171.692L10.6831 171.698L12.4489 170.759ZM12.6477 57.5057L14.4104 58.4508L14.4104 58.4508L12.6477 57.5057ZM46.6534 21.9091L47.6431 23.6471L47.6491 23.6436L46.6534 21.9091ZM127.79 14.5511L127.165 16.451L127.169 16.4522L127.79 14.5511ZM154.736 29.0682L153.474 30.6196L153.482 30.626L154.736 29.0682ZM173.827 52.2358L172.064 53.181L172.069 53.1908L173.827 52.2358ZM183.372 81.6562H139.821V85.6562H183.372V81.6562ZM141.801 83.3767C140.976 77.5295 139.282 72.2823 136.693 67.664L133.204 69.62C135.521 73.7518 137.075 78.514 137.841 83.9358L141.801 83.3767ZM136.7 67.6752C134.126 63.0142 130.812 59.0348 126.762 55.7529L124.244 58.8607C127.883 61.8099 130.867 65.3873 133.198 69.6089L136.7 67.6752ZM126.762 55.753C122.716 52.4739 118.056 49.9755 112.804 48.2479L111.554 52.0476C116.378 53.6344 120.601 55.9087 124.244 58.8607L126.762 55.753ZM112.811 48.2504C107.614 46.518 101.996 45.6619 95.9716 45.6619V49.6619C101.614 49.6619 106.801 50.4631 111.547 52.0451L112.811 48.2504ZM95.9716 45.6619C85.0848 45.6619 75.5061 48.3721 67.3163 53.8551L69.5416 57.179C76.9958 52.1885 85.7788 49.6619 95.9716 49.6619V45.6619ZM67.3261 53.8486C59.1325 59.2647 52.8362 67.1499 48.3978 77.3923L52.0681 78.9827C56.2471 69.3387 62.0815 62.1103 69.5318 57.1855L67.3261 53.8486ZM48.3998 77.3878C43.9526 87.5822 41.7699 99.8687 41.7699 114.182H45.7699C45.7699 100.256 47.8959 88.5466 52.0661 78.9872L48.3998 77.3878ZM41.7699 114.182C41.7699 128.884 43.9499 141.372 48.3998 151.572L52.0661 149.973C47.8986 140.42 45.7699 128.514 45.7699 114.182H41.7699ZM48.4043 151.583C52.9114 161.758 59.2449 169.545 67.4455 174.826L69.6114 171.463C62.1679 166.669 56.3045 159.541 52.0616 149.963L48.4043 151.583ZM67.4455 174.826C75.6236 180.094 85.0561 182.702 95.6733 182.702V178.702C85.7412 178.702 77.0772 176.272 69.6114 171.463L67.4455 174.826ZM95.6733 182.702C101.617 182.702 107.156 181.916 112.275 180.325L111.088 176.505C106.397 177.963 101.263 178.702 95.6733 178.702V182.702ZM112.268 180.327C117.447 178.739 122.069 176.416 126.115 173.346L123.697 170.159C120.054 172.924 115.86 175.042 111.095 176.503L112.268 180.327ZM126.132 173.333C130.178 170.194 133.526 166.391 136.171 161.936L132.732 159.894C130.339 163.924 127.324 167.346 123.68 170.173L126.132 173.333ZM136.16 161.956C138.886 157.482 140.755 152.407 141.788 146.758L137.854 146.038C136.898 151.259 135.188 155.863 132.744 159.874L136.16 161.956ZM139.812 148.398L183.363 148.597L183.381 144.597L139.83 144.398L139.812 148.398ZM181.387 146.357C180.289 155.456 177.547 164.241 173.145 172.721L176.696 174.563C181.309 165.675 184.201 156.43 185.358 146.836L181.387 146.357ZM173.143 172.726C168.817 181.119 162.97 188.651 155.583 195.326L158.264 198.294C165.99 191.313 172.141 183.4 176.698 174.558L173.143 172.726ZM155.583 195.325C148.294 201.905 139.563 207.151 129.363 211.049L130.791 214.786C141.404 210.73 150.571 205.237 158.263 198.294L155.583 195.325ZM129.369 211.047C119.291 214.858 107.837 216.784 94.9773 216.784V220.784C108.235 220.784 120.18 218.799 130.784 214.788L129.369 211.047ZM94.9773 216.784C77.1279 216.784 61.2369 212.749 47.2514 204.72L45.2599 208.189C59.9108 216.6 76.5009 220.784 94.9773 220.784V216.784ZM47.2549 204.722C33.3515 196.703 22.3378 185.091 14.2146 169.819L10.6831 171.698C19.1319 187.581 30.6561 199.766 45.2565 208.187L47.2549 204.722ZM14.2177 169.825C6.18391 154.6 2.11932 136.079 2.11932 114.182H-1.88068C-1.88068 136.565 2.27442 155.762 10.68 171.692L14.2177 169.825ZM2.11932 114.182C2.11932 92.2223 6.24886 73.6726 14.4104 58.4508L10.8851 56.5606C2.34205 72.4941 -1.88068 91.7285 -1.88068 114.182H2.11932ZM14.4104 58.4508C22.5982 43.1797 33.676 31.6005 47.6431 23.6471L45.6637 20.1711C30.9945 28.5245 19.4018 40.6763 10.8851 56.5606L14.4104 58.4508ZM47.6491 23.6436C61.6391 15.6123 77.3987 11.5795 94.9773 11.5795V7.57954C76.7604 7.57954 60.3041 11.7664 45.6577 20.1746L47.6491 23.6436ZM94.9773 11.5795C106.588 11.5795 117.312 13.2099 127.165 16.451L128.415 12.6513C118.116 9.26354 106.965 7.57954 94.9773 7.57954V11.5795ZM127.169 16.4522C137.091 19.6948 145.853 24.4197 153.474 30.6196L155.998 27.5167C147.975 20.9894 138.773 16.0362 128.411 12.6501L127.169 16.4522ZM153.482 30.626C161.088 36.7496 167.281 44.2613 172.064 53.1809L175.589 51.2906C170.562 41.9148 164.028 33.9814 155.99 27.5103L153.482 30.626ZM172.069 53.1908C176.904 62.0858 180.02 72.3086 181.386 83.8906L185.358 83.4219C183.941 71.4054 180.693 60.6813 175.584 51.2808L172.069 53.1908ZM213.45 216H211.45V218H213.45V216ZM213.45 63.2727V61.2727H211.45V63.2727H213.45ZM255.808 63.2727H257.808V61.2727H255.808V63.2727ZM255.808 216V218H257.808V216H255.808ZM218.521 37.321L217.14 38.7672L217.151 38.7778L217.162 38.7881L218.521 37.321ZM218.521 7.09375L219.891 8.55079L219.892 8.55015L218.521 7.09375ZM250.837 7.09375L249.455 8.53997L249.466 8.55051L249.477 8.56087L250.837 7.09375ZM250.837 37.321L252.207 38.778L252.207 38.7774L250.837 37.321ZM215.45 216V63.2727H211.45V216H215.45ZM213.45 65.2727H255.808V61.2727H213.45V65.2727ZM253.808 63.2727V216H257.808V63.2727H253.808ZM255.808 214H213.45V218H255.808V214ZM234.729 41.5852C228.922 41.5852 224.008 39.6782 219.881 35.8539L217.162 38.7881C222.049 43.3161 227.941 45.5852 234.729 45.5852V41.5852ZM219.903 35.8748C215.838 31.9923 213.859 27.4365 213.859 22.1079H209.859C209.859 28.5786 212.322 34.1649 217.14 38.7672L219.903 35.8748ZM213.859 22.1079C213.859 16.8538 215.832 12.3681 219.891 8.55079L217.151 5.63671C212.328 10.1717 209.859 15.6954 209.859 22.1079H213.859ZM219.892 8.55015C224.022 4.66356 228.931 2.7301 234.729 2.7301V-1.2699C227.932 -1.2699 222.036 1.03907 217.151 5.63735L219.892 8.55015ZM234.729 2.7301C240.526 2.7301 245.396 4.66285 249.455 8.53997L252.218 5.64753C247.394 1.03978 241.526 -1.2699 234.729 -1.2699V2.7301ZM249.477 8.56087C253.601 12.3813 255.598 16.8641 255.598 22.1079H259.598C259.598 15.6851 257.087 10.1585 252.196 5.62663L249.477 8.56087ZM255.598 22.1079C255.598 27.4263 253.594 31.9792 249.466 35.8646L252.207 38.7774C257.094 34.178 259.598 28.5888 259.598 22.1079H255.598ZM249.467 35.864C245.41 39.6788 240.535 41.5852 234.729 41.5852V45.5852C241.517 45.5852 247.381 43.3155 252.207 38.778L249.467 35.864ZM370.975 63.2727H372.975V61.2727H370.975V63.2727ZM370.975 95.0909V97.0909H372.975V95.0909H370.975ZM279.001 95.0909H277.001V97.0909H279.001V95.0909ZM279.001 63.2727V61.2727H277.001V63.2727H279.001ZM299.881 26.6818V24.6818H297.881V26.6818H299.881ZM342.239 26.6818H344.239V24.6818H342.239V26.6818ZM344.029 178.216L342.273 179.174L342.28 179.185L342.286 179.196L344.029 178.216ZM349.001 182.69L348.248 184.543L348.258 184.547L348.268 184.551L349.001 182.69ZM362.523 183.486L362.852 185.459L362.884 185.453L362.916 185.447L362.523 183.486ZM367.097 182.591L369.054 182.177L368.65 180.265L366.729 180.625L367.097 182.591ZM373.759 214.111L374.356 216.02L376.092 215.477L375.716 213.697L373.759 214.111ZM364.81 216.398L364.373 214.446L364.357 214.45L364.341 214.454L364.81 216.398ZM350.79 218.088L350.718 216.089L350.713 216.09L350.79 218.088ZM323.944 214.011L323.187 215.863L323.193 215.865L323.944 214.011ZM306.146 199.494L307.825 198.409L307.825 198.409L306.146 199.494ZM299.881 174.636L301.881 174.65V174.636H299.881ZM368.975 63.2727V95.0909H372.975V63.2727H368.975ZM370.975 93.0909H279.001V97.0909H370.975V93.0909ZM281.001 95.0909V63.2727H277.001V95.0909H281.001ZM279.001 65.2727H370.975V61.2727H279.001V65.2727ZM299.881 28.6818H342.239V24.6818H299.881V28.6818ZM340.239 26.6818V169.068H344.239V26.6818H340.239ZM340.239 169.068C340.239 173.141 340.854 176.571 342.273 179.174L345.785 177.258C344.818 175.486 344.239 172.817 344.239 169.068H340.239ZM342.286 179.196C343.686 181.685 345.68 183.5 348.248 184.543L349.753 180.837C348.079 180.157 346.759 178.989 345.772 177.235L342.286 179.196ZM348.268 184.551C350.732 185.522 353.508 185.983 356.558 185.983V181.983C353.906 181.983 351.644 181.582 349.734 180.83L348.268 184.551ZM356.558 185.983C358.658 185.983 360.756 185.808 362.852 185.459L362.195 181.513C360.313 181.827 358.434 181.983 356.558 181.983V185.983ZM362.916 185.447C364.902 185.05 366.417 184.753 367.466 184.557L366.729 180.625C365.656 180.826 364.122 181.126 362.131 181.525L362.916 185.447ZM365.141 183.004L371.802 214.524L375.716 213.697L369.054 182.177L365.141 183.004ZM373.163 212.202C371.119 212.84 368.198 213.589 364.373 214.446L365.248 218.349C369.112 217.483 372.157 216.707 374.356 216.02L373.163 212.202ZM364.341 214.454C360.666 215.341 356.134 215.894 350.718 216.089L350.863 220.087C356.451 219.885 361.265 219.311 365.28 218.342L364.341 214.454ZM350.713 216.09C340.724 216.479 332.068 215.145 324.695 212.158L323.193 215.865C331.199 219.109 340.441 220.493 350.868 220.087L350.713 216.09ZM324.701 212.16C317.435 209.19 311.833 204.608 307.825 198.409L304.466 200.58C308.943 207.505 315.207 212.601 323.187 215.863L324.701 212.16ZM307.825 198.409C303.846 192.254 301.817 184.378 301.881 174.65L297.881 174.623C297.813 184.914 299.96 193.61 304.466 200.58L307.825 198.409ZM301.881 174.636V26.6818H297.881V174.636H301.881ZM409.604 271.98L409.965 270.013L409.953 270.011L409.942 270.009L409.604 271.98ZM398.07 268.898L396.156 268.32L395.632 270.054L397.307 270.746L398.07 268.898ZM407.616 237.278L408.202 235.366L406.282 234.777L405.701 236.7L407.616 237.278ZM421.039 239.764L420.972 241.763L420.974 241.763L421.039 239.764ZM431.479 236.98L430.37 235.316L430.361 235.322L430.353 235.328L431.479 236.98ZM438.738 226.838L440.602 227.563L440.605 227.556L438.738 226.838ZM441.224 220.375L443.09 221.093L443.354 220.409L443.112 219.716L441.224 220.375ZM386.437 63.2727V61.2727H383.621L384.548 63.9313L386.437 63.2727ZM430.982 63.2727L432.907 62.73L432.496 61.2727H430.982V63.2727ZM462.602 175.432L460.677 175.974L461.087 177.432H462.602V175.432ZM464.192 175.432V177.432H465.703L466.116 175.979L464.192 175.432ZM496.11 63.2727V61.2727H494.6L494.186 62.7253L496.11 63.2727ZM540.954 63.2727L542.841 63.9347L543.775 61.2727H540.954V63.2727ZM481.593 232.506L479.706 231.844L479.703 231.85L481.593 232.506ZM469.96 253.983L468.401 252.729L468.394 252.739L468.386 252.748L469.96 253.983ZM451.565 268.202L450.749 266.375L450.743 266.378L450.736 266.382L451.565 268.202ZM424.718 271.273C419.455 271.273 414.539 270.85 409.965 270.013L409.244 273.947C414.083 274.833 419.242 275.273 424.718 275.273V271.273ZM409.942 270.009C405.392 269.229 401.702 268.234 398.834 267.049L397.307 270.746C400.537 272.081 404.537 273.141 409.266 273.951L409.942 270.009ZM399.985 269.476L409.53 237.856L405.701 236.7L396.156 268.32L399.985 269.476ZM407.029 239.191C412.121 240.752 416.774 241.623 420.972 241.763L421.106 237.765C417.349 237.64 413.054 236.854 408.202 235.366L407.029 239.191ZM420.974 241.763C425.377 241.908 429.289 240.894 432.606 238.633L430.353 235.328C427.836 237.043 424.788 237.886 421.105 237.765L420.974 241.763ZM432.589 238.644C436.032 236.349 438.658 232.561 440.602 227.563L436.874 226.113C435.106 230.661 432.893 233.634 430.37 235.316L432.589 238.644ZM440.605 227.556L443.09 221.093L439.357 219.657L436.871 226.12L440.605 227.556ZM443.112 219.716L388.325 62.6142L384.548 63.9313L439.335 221.034L443.112 219.716ZM386.437 65.2727H430.982V61.2727H386.437V65.2727ZM429.057 63.8154L460.677 175.974L464.527 174.889L432.907 62.73L429.057 63.8154ZM462.602 177.432H464.192V173.432H462.602V177.432ZM466.116 175.979L498.034 63.8201L494.186 62.7253L462.269 174.884L466.116 175.979ZM496.11 65.2727H540.954V61.2727H496.11V65.2727ZM539.067 62.6107L479.706 231.844L483.48 233.168L542.841 63.9347L539.067 62.6107ZM479.703 231.85C476.92 239.877 473.147 246.829 468.401 252.729L471.518 255.236C476.582 248.94 480.565 241.574 483.483 233.161L479.703 231.85ZM468.386 252.748C463.756 258.647 457.888 263.188 450.749 266.375L452.38 270.028C460.09 266.586 466.485 261.648 471.533 255.218L468.386 252.748ZM450.736 266.382C443.635 269.615 434.984 271.273 424.718 271.273V275.273C435.399 275.273 444.646 273.55 452.393 270.022L450.736 266.382ZM743.099 83.6562V85.6562H745.349L745.085 83.4219L743.099 83.6562ZM699.548 83.6562L697.567 83.9358L697.81 85.6562H699.548V83.6562ZM694.675 68.642L692.925 69.6089L692.931 69.62L694.675 68.642ZM685.229 57.3068L683.97 58.8607L683.97 58.8607L685.229 57.3068ZM671.906 50.1477L671.273 52.0451L671.281 52.0476L671.906 50.1477ZM628.156 55.517L629.258 57.1855L629.268 57.179L628.156 55.517ZM609.96 78.1875L611.793 78.9872L611.795 78.9827L609.96 78.1875ZM609.96 150.773L608.126 151.572L608.131 151.583L609.96 150.773ZM628.255 173.145L627.172 174.826L627.172 174.826L628.255 173.145ZM671.408 178.415L670.822 176.503L670.815 176.505L671.408 178.415ZM684.633 171.753L685.842 173.346L685.85 173.34L685.859 173.333L684.633 171.753ZM694.178 160.915L692.47 159.874L692.464 159.884L692.459 159.894L694.178 160.915ZM699.548 146.398L699.557 144.398L697.882 144.39L697.58 146.038L699.548 146.398ZM743.099 146.597L745.084 146.836L745.353 144.607L743.108 144.597L743.099 146.597ZM734.647 173.642L732.872 172.721L732.869 172.726L734.647 173.642ZM716.65 196.81L717.99 198.294L717.991 198.294L716.65 196.81ZM689.803 212.918L690.511 214.788L690.517 214.786L689.803 212.918ZM605.982 206.455L604.983 208.187L604.987 208.189L605.982 206.455ZM572.175 170.759L570.407 171.692L570.41 171.698L572.175 170.759ZM572.374 57.5057L574.137 58.4508L574.137 58.4508L572.374 57.5057ZM606.38 21.9091L607.37 23.6471L607.376 23.6436L606.38 21.9091ZM687.516 14.5511L686.891 16.451L686.895 16.4522L687.516 14.5511ZM714.462 29.0682L713.2 30.6196L713.208 30.626L714.462 29.0682ZM733.553 52.2358L731.791 53.181L731.796 53.1908L733.553 52.2358ZM743.099 81.6562H699.548V85.6562H743.099V81.6562ZM701.528 83.3767C700.702 77.5295 699.009 72.2823 696.42 67.664L692.931 69.62C695.247 73.7518 696.802 78.514 697.567 83.9358L701.528 83.3767ZM696.426 67.6752C693.852 63.0142 690.539 59.0348 686.489 55.7529L683.97 58.8607C687.61 61.8099 690.593 65.3873 692.925 69.6089L696.426 67.6752ZM686.489 55.753C682.442 52.4739 677.782 49.9755 672.53 48.2479L671.281 52.0476C676.104 53.6344 680.327 55.9087 683.97 58.8607L686.489 55.753ZM672.538 48.2504C667.341 46.518 661.722 45.6619 655.698 45.6619V49.6619C661.341 49.6619 666.527 50.4631 671.273 52.0451L672.538 48.2504ZM655.698 45.6619C644.811 45.6619 635.233 48.3721 627.043 53.8551L629.268 57.179C636.722 52.1885 645.505 49.6619 655.698 49.6619V45.6619ZM627.053 53.8486C618.859 59.2647 612.563 67.1499 608.124 77.3923L611.795 78.9827C615.974 69.3387 621.808 62.1103 629.258 57.1855L627.053 53.8486ZM608.126 77.3878C603.679 87.5822 601.496 99.8687 601.496 114.182H605.496C605.496 100.256 607.622 88.5466 611.793 78.9872L608.126 77.3878ZM601.496 114.182C601.496 128.884 603.676 141.372 608.126 151.572L611.793 149.973C607.625 140.42 605.496 128.514 605.496 114.182H601.496ZM608.131 151.583C612.638 161.758 618.971 169.545 627.172 174.826L629.338 171.463C621.895 166.669 616.031 159.541 611.788 149.963L608.131 151.583ZM627.172 174.826C635.35 180.094 644.783 182.702 655.4 182.702V178.702C645.468 178.702 636.804 176.272 629.338 171.463L627.172 174.826ZM655.4 182.702C661.344 182.702 666.883 181.916 672.002 180.325L670.815 176.505C666.124 177.963 660.99 178.702 655.4 178.702V182.702ZM671.995 180.327C677.173 178.739 681.796 176.416 685.842 173.346L683.424 170.159C679.781 172.924 675.587 175.042 670.822 176.503L671.995 180.327ZM685.859 173.333C689.904 170.194 693.253 166.391 695.898 161.936L692.459 159.894C690.066 163.924 687.051 167.346 683.407 170.173L685.859 173.333ZM695.886 161.956C698.612 157.482 700.481 152.407 701.515 146.758L697.58 146.038C696.625 151.259 694.915 155.863 692.47 159.874L695.886 161.956ZM699.538 148.398L743.09 148.597L743.108 144.597L699.557 144.398L699.538 148.398ZM741.113 146.357C740.016 155.456 737.273 164.241 732.872 172.721L736.422 174.563C741.036 165.675 743.928 156.43 745.084 146.836L741.113 146.357ZM732.869 172.726C728.544 181.119 722.696 188.651 715.309 195.326L717.991 198.294C725.717 191.313 731.868 183.4 736.425 174.558L732.869 172.726ZM715.31 195.325C708.021 201.905 699.29 207.151 689.089 211.049L690.517 214.786C701.131 210.73 710.298 205.237 717.99 198.294L715.31 195.325ZM689.096 211.047C679.018 214.858 667.564 216.784 654.704 216.784V220.784C667.961 220.784 679.907 218.799 690.511 214.788L689.096 211.047ZM654.704 216.784C636.854 216.784 620.963 212.749 606.978 204.72L604.987 208.189C619.637 216.6 636.227 220.784 654.704 220.784V216.784ZM606.981 204.722C593.078 196.703 582.064 185.091 573.941 169.819L570.41 171.698C578.858 187.581 590.383 199.766 604.983 208.187L606.981 204.722ZM573.944 169.825C565.91 154.6 561.846 136.079 561.846 114.182H557.846C557.846 136.565 562.001 155.762 570.407 171.692L573.944 169.825ZM561.846 114.182C561.846 92.2223 565.975 73.6726 574.137 58.4508L570.612 56.5606C562.069 72.4941 557.846 91.7285 557.846 114.182H561.846ZM574.137 58.4508C582.325 43.1797 593.403 31.6005 607.37 23.6471L605.39 20.1711C590.721 28.5245 579.128 40.6763 570.612 56.5606L574.137 58.4508ZM607.376 23.6436C621.366 15.6123 637.125 11.5795 654.704 11.5795V7.57954C636.487 7.57954 620.031 11.7664 605.384 20.1746L607.376 23.6436ZM654.704 11.5795C666.314 11.5795 677.039 13.2099 686.891 16.451L688.141 12.6513C677.843 9.26354 666.692 7.57954 654.704 7.57954V11.5795ZM686.895 16.4522C696.818 19.6948 705.579 24.4197 713.2 30.6196L715.725 27.5167C707.701 20.9894 698.499 16.0362 688.138 12.6501L686.895 16.4522ZM713.208 30.626C720.814 36.7496 727.008 44.2613 731.791 53.1809L735.316 51.2906C730.288 41.9148 723.754 33.9814 715.717 27.5103L713.208 30.626ZM731.796 53.1908C736.63 62.0858 739.746 72.3086 741.112 83.8906L745.085 83.4219C743.667 71.4054 740.419 60.6813 735.311 51.2808L731.796 53.1908ZM802.112 209.139L801.093 210.86L801.105 210.867L802.112 209.139ZM776.16 181.497L774.381 182.411L774.383 182.415L776.16 181.497ZM776.16 98.8693L777.937 99.7876L777.939 99.7836L776.16 98.8693ZM802.112 71.2273L803.122 72.953L803.126 72.9511L802.112 71.2273ZM882.154 71.2273L881.136 72.9485L881.148 72.9556L882.154 71.2273ZM908.205 98.8693L906.426 99.7836L906.429 99.7876L908.205 98.8693ZM908.205 181.497L909.982 182.415L909.984 182.411L908.205 181.497ZM882.154 209.139L883.165 210.865L883.168 210.863L882.154 209.139ZM859.981 180.205L861.272 181.732L861.278 181.727L861.284 181.722L859.981 180.205ZM870.62 163.699L868.734 163.034L868.731 163.042L868.728 163.05L870.62 163.699ZM870.62 116.17L868.728 116.819L868.731 116.827L868.734 116.835L870.62 116.17ZM824.484 99.6648L823.201 98.13L823.191 98.1388L824.484 99.6648ZM813.646 116.17L811.759 115.506L811.756 115.514L811.754 115.522L813.646 116.17ZM813.646 163.699L811.754 164.348L811.756 164.356L811.759 164.364L813.646 163.699ZM824.484 180.205L823.191 181.731L823.202 181.74L823.214 181.75L824.484 180.205ZM842.183 216.983C827.025 216.983 814.029 213.765 803.118 207.411L801.105 210.867C812.732 217.638 826.449 220.983 842.183 220.983V216.983ZM803.13 207.418C792.257 200.984 783.866 192.052 777.937 180.579L774.383 182.415C780.65 194.541 789.56 204.036 801.093 210.86L803.13 207.418ZM777.939 180.583C772.009 169.045 769.012 155.614 769.012 140.233H765.012C765.012 156.14 768.114 170.218 774.381 182.411L777.939 180.583ZM769.012 140.233C769.012 124.716 772.01 111.254 777.937 99.7876L774.383 97.951C768.113 110.083 765.012 124.197 765.012 140.233H769.012ZM777.939 99.7836C783.868 88.2461 792.257 79.3179 803.122 72.953L801.101 69.5016C789.561 76.2616 780.648 85.7614 774.381 97.9551L777.939 99.7836ZM803.126 72.9511C814.035 66.5335 827.029 63.2841 842.183 63.2841V59.2841C826.446 59.2841 812.725 62.6634 801.097 69.5034L803.126 72.9511ZM842.183 63.2841C857.337 63.2841 870.295 66.5337 881.136 72.9485L883.173 69.506C871.608 62.6633 857.919 59.2841 842.183 59.2841V63.2841ZM881.148 72.9556C892.079 79.3213 900.498 88.2492 906.426 99.7836L909.984 97.9551C903.715 85.7583 894.767 76.2582 883.161 69.499L881.148 72.9556ZM906.429 99.7876C912.355 111.254 915.353 124.716 915.353 140.233H919.353C919.353 124.197 916.252 110.083 909.982 97.951L906.429 99.7876ZM915.353 140.233C915.353 155.614 912.356 169.045 906.426 180.583L909.984 182.411C916.251 170.218 919.353 156.14 919.353 140.233H915.353ZM906.429 180.579C900.5 192.049 892.078 200.981 881.14 207.415L883.168 210.863C894.768 204.04 903.713 194.544 909.982 182.415L906.429 180.579ZM881.143 207.414C870.301 213.765 857.34 216.983 842.183 216.983V220.983C857.915 220.983 871.602 217.638 883.165 210.865L881.143 207.414ZM842.381 188.17C849.81 188.17 856.154 186.057 861.272 181.732L858.69 178.677C854.395 182.307 849.006 184.17 842.381 184.17V188.17ZM861.284 181.722C866.307 177.406 870.032 171.581 872.512 164.348L868.728 163.05C866.436 169.737 863.068 174.916 858.677 178.688L861.284 181.722ZM872.506 164.364C875.048 157.151 876.299 148.999 876.299 139.935H872.299C872.299 148.636 871.098 156.326 868.734 163.034L872.506 164.364ZM876.299 139.935C876.299 130.87 875.048 122.718 872.506 115.506L868.734 116.835C871.098 123.543 872.299 131.234 872.299 139.935H876.299ZM872.512 115.522C870.032 108.288 866.307 102.463 861.284 98.1478L858.677 101.182C863.068 104.954 866.436 110.133 868.728 116.819L872.512 115.522ZM861.284 98.1478C856.167 93.7513 849.819 91.5994 842.381 91.5994V95.5994C848.997 95.5994 854.382 97.4912 858.677 101.182L861.284 98.1478ZM842.381 91.5994C834.882 91.5994 828.445 93.7483 823.201 98.1301L825.766 101.199C830.2 97.4941 835.695 95.5994 842.381 95.5994V91.5994ZM823.191 98.1388C818.102 102.45 814.309 108.271 811.759 115.506L815.532 116.835C817.888 110.149 821.32 104.967 825.777 101.191L823.191 98.1388ZM811.754 115.522C809.283 122.729 808.066 130.876 808.066 139.935H812.066C812.066 131.229 813.236 123.532 815.537 116.819L811.754 115.522ZM808.066 139.935C808.066 148.994 809.283 157.14 811.754 164.348L815.537 163.05C813.236 156.337 812.066 148.641 812.066 139.935H808.066ZM811.759 164.364C814.309 171.598 818.102 177.419 823.191 181.731L825.777 178.679C821.32 174.903 817.888 169.72 815.532 163.034L811.759 164.364ZM823.214 181.75C828.458 186.06 834.89 188.17 842.381 188.17V184.17C835.687 184.17 830.188 182.304 825.754 178.659L823.214 181.75ZM944.896 216H942.896V218H944.896V216ZM944.896 63.2727V61.2727H942.896V63.2727H944.896ZM987.254 63.2727H989.254V61.2727H987.254V63.2727ZM987.254 216V218H989.254V216H987.254ZM949.967 37.321L948.585 38.7672L948.596 38.7778L948.607 38.7881L949.967 37.321ZM949.967 7.09375L951.337 8.55079L951.337 8.55015L949.967 7.09375ZM982.282 7.09375L980.9 8.53997L980.912 8.55051L980.923 8.56087L982.282 7.09375ZM982.282 37.321L983.652 38.778L983.653 38.7774L982.282 37.321ZM946.896 216V63.2727H942.896V216H946.896ZM944.896 65.2727H987.254V61.2727H944.896V65.2727ZM985.254 63.2727V216H989.254V63.2727H985.254ZM987.254 214H944.896V218H987.254V214ZM966.174 41.5852C960.367 41.5852 955.454 39.6782 951.326 35.8539L948.607 38.7881C953.495 43.3161 959.386 45.5852 966.174 45.5852V41.5852ZM951.348 35.8748C947.284 31.9923 945.305 27.4365 945.305 22.1079H941.305C941.305 28.5786 943.767 34.1649 948.585 38.7672L951.348 35.8748ZM945.305 22.1079C945.305 16.8538 947.277 12.3681 951.337 8.55079L948.597 5.63671C943.774 10.1717 941.305 15.6954 941.305 22.1079H945.305ZM951.337 8.55015C955.467 4.66356 960.376 2.7301 966.174 2.7301V-1.2699C959.377 -1.2699 953.482 1.03907 948.596 5.63735L951.337 8.55015ZM966.174 2.7301C971.971 2.7301 976.842 4.66285 980.9 8.53997L983.663 5.64753C978.84 1.03978 972.971 -1.2699 966.174 -1.2699V2.7301ZM980.923 8.56087C985.046 12.3813 987.043 16.8641 987.043 22.1079H991.043C991.043 15.6851 988.533 10.1585 983.641 5.62663L980.923 8.56087ZM987.043 22.1079C987.043 27.4263 985.039 31.9792 980.911 35.8646L983.653 38.7774C988.54 34.178 991.043 28.5888 991.043 22.1079H987.043ZM980.912 35.864C976.855 39.6788 971.981 41.5852 966.174 41.5852V45.5852C972.962 45.5852 978.826 43.3155 983.652 38.778L980.912 35.864ZM1063.54 127.705L1061.54 127.684L1061.54 127.694V127.705H1063.54ZM1063.54 216V218H1065.54V216H1063.54ZM1021.18 216H1019.18V218H1021.18V216ZM1021.18 63.2727V61.2727H1019.18V63.2727H1021.18ZM1061.55 63.2727H1063.55V61.2727H1061.55V63.2727ZM1061.55 90.2188H1059.55V92.2188H1061.55V90.2188ZM1063.34 90.2188V92.2188H1064.72L1065.21 90.9302L1063.34 90.2188ZM1080.35 69.1392L1081.44 70.8161L1081.45 70.8097L1080.35 69.1392ZM1137.02 68.2443L1138.04 66.5204L1137.02 68.2443ZM1155.42 88.1307L1153.63 89.0361L1153.64 89.0416L1155.42 88.1307ZM1161.98 216V218H1163.98V216H1161.98ZM1119.62 216H1117.62V218H1119.62V216ZM1119.62 126.312L1117.62 126.298L1117.62 126.305V126.312H1119.62ZM1112.46 104.438L1110.99 105.786L1110.99 105.795L1112.46 104.438ZM1077.36 100.162L1076.39 98.4173L1076.37 98.4238L1077.36 100.162ZM1067.22 110.901L1065.45 109.976L1065.44 109.986L1067.22 110.901ZM1061.54 127.705V216H1065.54V127.705H1061.54ZM1063.54 214H1021.18V218H1063.54V214ZM1023.18 216V63.2727H1019.18V216H1023.18ZM1021.18 65.2727H1061.55V61.2727H1021.18V65.2727ZM1059.55 63.2727V90.2188H1063.55V63.2727H1059.55ZM1061.55 92.2188H1063.34V88.2188H1061.55V92.2188ZM1065.21 90.9302C1068.44 82.4431 1073.84 75.755 1081.44 70.8161L1079.26 67.4623C1070.95 72.8643 1065.01 80.2292 1061.47 89.5073L1065.21 90.9302ZM1081.45 70.8097C1089.02 65.826 1098.26 63.2841 1109.28 63.2841V59.2841C1097.63 59.2841 1087.59 61.9789 1079.25 67.4687L1081.45 70.8097ZM1109.28 63.2841C1119.59 63.2841 1128.47 65.5359 1136.01 69.9682L1138.04 66.5204C1129.8 61.6725 1120.19 59.2841 1109.28 59.2841V63.2841ZM1136.01 69.9682C1143.55 74.4035 1149.42 80.7393 1153.63 89.0361L1157.2 87.2253C1152.66 78.2872 1146.27 71.3654 1138.04 66.5204L1136.01 69.9682ZM1153.64 89.0416C1157.84 97.2521 1159.98 107.134 1159.98 118.756H1163.98C1163.98 106.647 1161.75 96.1115 1157.2 87.2197L1153.64 89.0416ZM1159.98 118.756V216H1163.98V118.756H1159.98ZM1161.98 214H1119.62V218H1161.98V214ZM1121.62 216V126.312H1117.62V216H1121.62ZM1121.62 126.327C1121.69 116.635 1119.21 108.794 1113.93 103.08L1110.99 105.795C1115.39 110.554 1117.69 117.297 1117.62 126.298L1121.62 126.327ZM1113.94 103.089C1108.65 97.2952 1101.41 94.483 1092.48 94.483V98.483C1100.51 98.483 1106.59 100.974 1110.99 105.786L1113.94 103.089ZM1092.48 94.483C1086.48 94.483 1081.1 95.7754 1076.39 98.4174L1078.34 101.906C1082.38 99.6431 1087.07 98.483 1092.48 98.483V94.483ZM1076.37 98.4238C1071.71 101.08 1068.07 104.954 1065.45 109.976L1069 111.825C1071.28 107.434 1074.4 104.149 1078.35 101.9L1076.37 98.4238ZM1065.44 109.986C1062.88 114.965 1061.61 120.889 1061.54 127.684L1065.54 127.725C1065.61 121.395 1066.79 116.116 1069 111.815L1065.44 109.986ZM1322.44 106.824L1322.56 108.82L1324.7 108.688L1324.42 106.562L1322.44 106.824ZM1283.66 109.21L1281.7 109.602L1282.04 111.314L1283.78 111.206L1283.66 109.21ZM1279.38 100.261L1277.83 101.515L1277.83 101.525L1277.84 101.534L1279.38 100.261ZM1270.73 93.7983L1269.88 95.6072L1269.9 95.6168L1269.92 95.6259L1270.73 93.7983ZM1241.5 95.4886L1242.53 97.2014L1242.54 97.1959L1242.55 97.1902L1241.5 95.4886ZM1239.11 115.673L1237.81 117.187L1237.81 117.187L1239.11 115.673ZM1254.13 121.739L1253.71 123.694L1253.72 123.697L1253.73 123.699L1254.13 121.739ZM1281.77 127.307L1282.17 125.348L1282.17 125.346L1281.77 127.307ZM1314.98 142.023L1313.62 143.489L1313.62 143.489L1314.98 142.023ZM1317.07 195.02L1315.49 193.789L1315.49 193.798L1317.07 195.02ZM1293.01 212.719L1293.77 214.568L1293.77 214.566L1293.01 212.719ZM1209.58 206.355L1208.42 207.985L1208.43 207.992L1209.58 206.355ZM1188.6 171.753L1188.5 169.756L1186.32 169.87L1186.62 172.032L1188.6 171.753ZM1230.26 169.565L1232.22 169.165L1231.88 167.478L1230.16 167.568L1230.26 169.565ZM1239.41 183.685L1238.3 185.345L1238.31 185.351L1238.31 185.356L1239.41 183.685ZM1275.9 184.182L1276.97 185.872L1276.98 185.868L1275.9 184.182ZM1282.86 172.946L1284.86 172.975L1284.86 172.943L1284.86 172.912L1282.86 172.946ZM1277.99 163.5L1276.75 165.068L1276.76 165.076L1276.77 165.084L1277.99 163.5ZM1263.28 157.733L1263.67 155.772L1263.67 155.772L1263.28 157.733ZM1236.83 152.463L1236.44 154.424L1236.44 154.425L1236.83 152.463ZM1203.52 136.952L1202.09 138.353L1202.1 138.36L1203.52 136.952ZM1200.63 83.4574L1199.04 82.2502L1199.03 82.2598L1200.63 83.4574ZM1223.21 67.0511L1222.47 65.1907L1222.47 65.1924L1223.21 67.0511ZM1302.95 73.5142L1301.76 75.1246L1301.77 75.1279L1302.95 73.5142ZM1322.32 104.828L1283.54 107.214L1283.78 111.206L1322.56 108.82L1322.32 104.828ZM1285.62 108.818C1284.89 105.174 1283.32 101.89 1280.93 98.9886L1277.84 101.534C1279.82 103.936 1281.1 106.617 1281.7 109.602L1285.62 108.818ZM1280.94 99.0073C1278.53 96.0127 1275.38 93.6747 1271.55 91.9707L1269.92 95.6259C1273.25 97.1037 1275.86 99.0744 1277.83 101.515L1280.94 99.0073ZM1271.59 91.9894C1267.75 90.1778 1263.23 89.3125 1258.11 89.3125V93.3125C1262.79 93.3125 1266.69 94.1044 1269.88 95.6072L1271.59 91.9894ZM1258.11 89.3125C1251.26 89.3125 1245.34 90.7661 1240.45 93.787L1242.55 97.1902C1246.68 94.6429 1251.83 93.3125 1258.11 93.3125V89.3125ZM1240.47 93.7759C1235.47 96.7909 1232.74 101.034 1232.74 106.426H1236.74C1236.74 102.67 1238.52 99.622 1242.53 97.2014L1240.47 93.7759ZM1232.74 106.426C1232.74 110.69 1234.48 114.313 1237.81 117.187L1240.42 114.16C1237.92 111.996 1236.74 109.454 1236.74 106.426H1232.74ZM1237.81 117.187C1241.12 120.044 1246.53 122.151 1253.71 123.694L1254.55 119.783C1247.54 118.277 1242.95 116.34 1240.42 114.16L1237.81 117.187ZM1253.73 123.699L1281.38 129.267L1282.17 125.346L1254.52 119.778L1253.73 123.699ZM1281.37 129.266C1296.03 132.277 1306.7 137.074 1313.62 143.489L1316.34 140.556C1308.68 133.448 1297.21 128.435 1282.17 125.348L1281.37 129.266ZM1313.62 143.489C1320.46 149.83 1323.92 158.157 1323.92 168.67H1327.92C1327.92 157.176 1324.09 147.739 1316.34 140.556L1313.62 143.489ZM1323.92 168.67C1323.92 178.255 1321.1 186.6 1315.49 193.789L1318.65 196.251C1324.83 188.326 1327.92 179.105 1327.92 168.67H1323.92ZM1315.49 193.798C1309.9 201.038 1302.18 206.742 1292.24 210.872L1293.77 214.566C1304.25 210.211 1312.57 204.115 1318.65 196.242L1315.49 193.798ZM1292.24 210.869C1282.39 214.928 1270.96 216.983 1257.91 216.983V220.983C1271.37 220.983 1283.34 218.862 1293.77 214.568L1292.24 210.869ZM1257.91 216.983C1237.95 216.983 1222.29 212.826 1210.73 204.718L1208.43 207.992C1220.87 216.721 1237.43 220.983 1257.91 220.983V216.983ZM1210.74 204.725C1199.26 196.561 1192.56 185.517 1190.58 171.474L1186.62 172.032C1188.75 187.156 1196.04 199.18 1208.42 207.985L1210.74 204.725ZM1188.71 173.75L1230.37 171.563L1230.16 167.568L1188.5 169.756L1188.71 173.75ZM1228.31 169.966C1229.66 176.6 1232.99 181.78 1238.3 185.345L1240.53 182.024C1236.16 179.093 1233.39 174.86 1232.22 169.165L1228.31 169.966ZM1238.31 185.356C1243.57 188.809 1250.18 190.457 1258.01 190.457V186.457C1250.72 186.457 1244.94 184.924 1240.51 182.014L1238.31 185.356ZM1258.01 190.457C1265.67 190.457 1272.04 188.989 1276.97 185.872L1274.84 182.491C1270.75 185.075 1265.19 186.457 1258.01 186.457V190.457ZM1276.98 185.868C1282 182.667 1284.79 178.354 1284.86 172.975L1280.86 172.917C1280.81 176.685 1278.96 179.863 1274.83 182.496L1276.98 185.868ZM1284.86 172.912C1284.79 168.428 1282.85 164.721 1279.21 161.916L1276.77 165.084C1279.5 167.185 1280.81 169.775 1280.86 172.981L1284.86 172.912ZM1279.23 161.932C1275.69 159.127 1270.43 157.123 1263.67 155.772L1262.88 159.694C1269.38 160.994 1273.93 162.835 1276.75 165.068L1279.23 161.932ZM1263.67 155.772L1237.22 150.502L1236.44 154.425L1262.89 159.694L1263.67 155.772ZM1237.22 150.502C1222.52 147.562 1211.85 142.516 1204.94 135.544L1202.1 138.36C1209.77 146.104 1221.3 151.398 1236.44 154.424L1237.22 150.502ZM1204.94 135.55C1198.13 128.608 1194.68 119.75 1194.68 108.812H1190.68C1190.68 120.678 1194.46 130.58 1202.09 138.353L1204.94 135.55ZM1194.68 108.812C1194.68 99.3846 1197.22 91.3647 1202.24 84.655L1199.03 82.2598C1193.44 89.7356 1190.68 98.6192 1190.68 108.812H1194.68ZM1202.23 84.6645C1207.34 77.9096 1214.55 72.643 1223.94 68.9098L1222.47 65.1924C1212.51 69.1487 1204.66 74.8196 1199.04 82.2502L1202.23 84.6645ZM1223.94 68.9116C1233.4 65.1787 1244.54 63.2841 1257.41 63.2841V59.2841C1244.16 59.2841 1232.5 61.2341 1222.47 65.1907L1223.94 68.9116ZM1257.41 63.2841C1276.44 63.2841 1291.15 67.3082 1301.76 75.1245L1304.14 71.9038C1292.61 63.4134 1276.96 59.2841 1257.41 59.2841V63.2841ZM1301.77 75.1279C1312.45 82.9492 1318.67 93.5573 1320.46 107.086L1324.42 106.562C1322.5 91.9844 1315.72 80.386 1304.13 71.9005L1301.77 75.1279Z" fill="url(#paint0_linear_602_2)"/>
<defs>
<linearGradient id="paint0_linear_602_2" x1="661" y1="-55" x2="661" y2="284" gradientUnits="userSpaceOnUse">
<stop stop-color="white"/>
<stop offset="1" stop-color="white" stop-opacity="0"/>
</linearGradient>
</defs>
</svg>
