<svg width="40" height="40" viewBox="0 0 40 40" fill="none" xmlns="http://www.w3.org/2000/svg">
<path fill-rule="evenodd" clip-rule="evenodd" d="M20 37C29.3888 37 37 29.3889 37 20C37 10.6112 29.3888 3.00002 20 3.00002C10.6112 3.00002 3 10.6112 3 20C3 29.3889 10.6112 37 20 37ZM40 20C40 31.0457 31.0457 40 20 40C8.95431 40 0 31.0457 0 20C0 8.95432 8.95431 1.52588e-05 20 1.52588e-05C31.0457 1.52588e-05 40 8.95432 40 20Z" fill="white"/>
<path d="M21.5843 25.2579L22.0787 26.0234L18.1028 26.0182C16.5887 26.0165 15.1632 25.3869 14.0909 24.2447C13.0185 23.1024 12.4289 21.587 12.4322 19.9791C12.4371 16.6587 14.9842 13.9574 18.111 13.9574L22.0951 13.9627L21.5991 14.7282C20.5892 16.282 20.0554 18.1027 20.0521 19.9913C20.0489 21.8782 20.5777 23.6988 21.5843 25.2579ZM37.33 13.9818L37.3333 10.6911L18.1225 10.6667C13.278 10.6667 9.33989 14.8433 9.33332 19.9756C9.33004 22.4607 10.2398 24.801 11.8985 26.5658C13.5555 28.3306 15.7577 29.3055 18.0979 29.3089L37.3087 29.3334L37.312 26.0444L28.82 26.0339C27.3059 26.0322 25.8804 25.4009 24.808 24.2604C23.7357 23.1181 23.1461 21.6027 23.1477 19.9948C23.1494 18.3869 23.7422 16.8732 24.8179 15.7344C25.8919 14.5974 27.3157 13.9714 28.8266 13.9714L37.33 13.9818Z" fill="white"/>
</svg>
