<svg width="1391" height="274" viewBox="0 0 1391 274" fill="none" xmlns="http://www.w3.org/2000/svg">
<path opacity="0.2" d="M183.372 83.6562V85.6562H185.628L185.358 83.417L183.372 83.6562ZM183.372 146.597L185.357 146.844L185.636 144.607L183.381 144.597L183.372 146.597ZM139.821 146.398L139.83 144.398L138.162 144.39L137.855 146.03L139.821 146.398ZM139.821 83.6562L137.842 83.9465L138.093 85.6562H139.821V83.6562ZM185.358 83.417C182.467 59.4285 171.918 40.4238 155.987 27.4313C140.073 14.4525 118.922 7.57954 94.9773 7.57954V11.5795C118.163 11.5795 138.375 18.2293 153.459 30.5311C168.526 42.8191 178.61 60.8527 181.387 83.8955L185.358 83.417ZM94.9773 7.57954C67.5977 7.57954 43.3381 17.2555 25.9284 35.5184C8.52124 53.7788 -1.88068 80.4561 -1.88068 114.182H2.11932C2.11932 81.2882 12.2501 55.6644 28.8237 38.2784C45.3948 20.8951 68.5643 11.5795 94.9773 11.5795V7.57954ZM-1.88068 114.182C-1.88068 147.8 8.34241 174.477 25.6629 192.766C42.9885 211.06 67.2519 220.784 94.9773 220.784V216.784C68.2141 216.784 45.0484 207.418 28.5672 190.015C12.0809 172.608 2.11932 146.984 2.11932 114.182H-1.88068ZM94.9773 220.784C148.204 220.784 180.561 185.314 185.357 146.844L181.388 146.349C176.837 182.85 146.154 216.784 94.9773 216.784V220.784ZM183.381 144.597L139.83 144.398L139.812 148.398L183.363 148.597L183.381 144.597ZM137.855 146.03C135.901 156.467 130.853 164.594 123.617 170.127C116.366 175.671 106.796 178.702 95.6733 178.702V182.702C107.52 182.702 117.985 179.468 126.046 173.304C134.123 167.129 139.664 158.104 141.787 146.766L137.855 146.03ZM95.6733 178.702C80.747 178.702 68.3669 173.181 59.6761 162.51C50.9454 151.791 45.7699 135.662 45.7699 114.182H41.7699C41.7699 136.253 47.0845 153.384 56.5746 165.036C66.1047 176.738 79.6763 182.702 95.6733 182.702V178.702ZM45.7699 114.182C45.7699 93.3041 50.8684 77.1665 59.6097 66.2906C68.3109 55.4645 80.7688 49.6619 95.9716 49.6619V45.6619C79.6545 45.6619 66.0115 51.9403 56.4919 63.7847C47.0123 75.5793 41.7699 92.7016 41.7699 114.182H45.7699ZM95.9716 49.6619C107.367 49.6619 117.042 52.9518 124.239 58.8196C131.426 64.6793 136.268 73.2119 137.842 83.9465L141.8 83.366C140.093 71.7285 134.793 62.2639 126.767 55.7195C118.75 49.1831 108.141 45.6619 95.9716 45.6619V49.6619ZM139.821 85.6562H183.372V81.6562H139.821V85.6562ZM213.45 216H211.45V218H213.45V216ZM255.808 216V218H257.808V216H255.808ZM255.808 63.2727H257.808V61.2727H255.808V63.2727ZM213.45 63.2727V61.2727H211.45V63.2727H213.45ZM213.45 218H255.808V214H213.45V218ZM257.808 216V63.2727H253.808V216H257.808ZM255.808 61.2727H213.45V65.2727H255.808V61.2727ZM211.45 63.2727V216H215.45V63.2727H211.45ZM234.729 45.5852C248.331 45.5852 259.697 35.1707 259.697 22.1079H255.697C255.697 32.71 246.382 41.5852 234.729 41.5852V45.5852ZM259.697 22.1079C259.697 9.13883 248.325 -1.2699 234.729 -1.2699V2.7301C246.388 2.7301 255.697 11.6112 255.697 22.1079H259.697ZM234.729 -1.2699C221.226 -1.2699 209.859 9.14426 209.859 22.1079H213.859C213.859 11.6057 223.174 2.7301 234.729 2.7301V-1.2699ZM209.859 22.1079C209.859 35.1653 221.22 45.5852 234.729 45.5852V41.5852C223.181 41.5852 213.859 32.7154 213.859 22.1079H209.859ZM370.975 63.2727H372.975V61.2727H370.975V63.2727ZM342.239 63.2727H340.239V65.2727H342.239V63.2727ZM342.239 26.6818H344.239V24.6818H342.239V26.6818ZM299.881 26.6818V24.6818H297.881V26.6818H299.881ZM299.881 63.2727V65.2727H301.881V63.2727H299.881ZM279.001 63.2727V61.2727H277.001V63.2727H279.001ZM279.001 95.0909H277.001V97.0909H279.001V95.0909ZM299.881 95.0909H301.881V93.0909H299.881V95.0909ZM299.881 174.636L301.881 174.65V174.636H299.881ZM350.79 218.088L350.718 216.089L350.706 216.09L350.79 218.088ZM373.759 214.111L374.378 216.013L376.088 215.456L375.716 213.697L373.759 214.111ZM367.097 182.591L369.054 182.177L368.649 180.259L366.723 180.626L367.097 182.591ZM342.239 95.0909V93.0909H340.239V95.0909H342.239ZM370.975 95.0909V97.0909H372.975V95.0909H370.975ZM370.975 61.2727H342.239V65.2727H370.975V61.2727ZM344.239 63.2727V26.6818H340.239V63.2727H344.239ZM342.239 24.6818H299.881V28.6818H342.239V24.6818ZM297.881 26.6818V63.2727H301.881V26.6818H297.881ZM299.881 61.2727H279.001V65.2727H299.881V61.2727ZM277.001 63.2727V95.0909H281.001V63.2727H277.001ZM279.001 97.0909H299.881V93.0909H279.001V97.0909ZM297.881 95.0909V174.636H301.881V95.0909H297.881ZM297.881 174.623C297.779 190.073 303.009 201.883 312.474 209.619C321.885 217.311 335.203 220.746 350.875 220.086L350.706 216.09C335.653 216.723 323.417 213.397 315.005 206.522C306.647 199.691 301.785 189.128 301.881 174.65L297.881 174.623ZM350.863 220.087C362.042 219.68 369.988 217.442 374.378 216.013L373.14 212.209C368.979 213.564 361.414 215.7 350.718 216.089L350.863 220.087ZM375.716 213.697L369.054 182.177L365.141 183.004L371.802 214.524L375.716 213.697ZM366.723 180.626C364.535 181.043 360.296 181.983 356.558 181.983V185.983C360.773 185.983 365.483 184.934 367.472 184.556L366.723 180.626ZM356.558 181.983C352.519 181.983 349.543 181.211 347.564 179.436C345.628 177.7 344.239 174.632 344.239 169.068H340.239C340.239 175.238 341.784 179.626 344.894 182.415C347.961 185.164 352.144 185.983 356.558 185.983V181.983ZM344.239 169.068V95.0909H340.239V169.068H344.239ZM342.239 97.0909H370.975V93.0909H342.239V97.0909ZM372.975 95.0909V63.2727H368.975V95.0909H372.975ZM481.593 232.506L479.706 231.843L479.706 231.844L481.593 232.506ZM540.954 63.4716L542.841 64.1343L543.772 61.4841L540.963 61.4716L540.954 63.4716ZM496.11 63.2727L496.119 61.2727L494.602 61.266L494.186 62.7253L496.11 63.2727ZM464.192 175.432V177.432H465.703L466.116 175.979L464.192 175.432ZM462.602 175.432L460.677 175.974L461.087 177.432H462.602V175.432ZM430.982 63.2727L432.907 62.73L432.496 61.2727H430.982V63.2727ZM386.437 63.2727V61.2727H383.621L384.548 63.9313L386.437 63.2727ZM441.224 220.375L443.09 221.093L443.354 220.409L443.112 219.716L441.224 220.375ZM438.738 226.838L440.602 227.563L440.605 227.556L438.738 226.838ZM407.616 237.278L408.202 235.366L406.282 234.777L405.701 236.7L407.616 237.278ZM398.07 268.898L396.156 268.32L395.638 270.035L397.286 270.738L398.07 268.898ZM424.718 275.273C440.835 275.273 453.344 271.147 462.955 263.719C472.546 256.305 479.07 245.74 483.48 233.168L479.706 231.844C475.466 243.93 469.312 253.749 460.508 260.554C451.724 267.344 440.121 271.273 424.718 271.273V275.273ZM483.48 233.168L542.841 64.1343L539.067 62.8089L479.706 231.843L483.48 233.168ZM540.963 61.4716L496.119 61.2727L496.101 65.2727L540.945 65.4716L540.963 61.4716ZM494.186 62.7253L462.269 174.884L466.116 175.979L498.034 63.8201L494.186 62.7253ZM464.192 173.432H462.602V177.432H464.192V173.432ZM464.527 174.889L432.907 62.73L429.057 63.8154L460.677 175.974L464.527 174.889ZM430.982 61.2727H386.437V65.2727H430.982V61.2727ZM384.548 63.9313L439.335 221.034L443.112 219.716L388.325 62.6142L384.548 63.9313ZM439.357 219.657L436.871 226.12L440.605 227.556L443.09 221.093L439.357 219.657ZM436.874 226.113C434.26 232.835 430.624 236.022 426.167 237.21C421.516 238.451 415.586 237.631 408.202 235.366L407.029 239.191C414.561 241.5 421.408 242.619 427.197 241.075C433.18 239.48 437.648 235.159 440.602 227.563L436.874 226.113ZM405.701 236.7L396.156 268.32L399.985 269.476L409.53 237.856L405.701 236.7ZM397.286 270.738C403.678 273.462 413.81 275.273 424.718 275.273V271.273C414.148 271.273 404.594 269.504 398.855 267.058L397.286 270.738ZM807.903 83.6562V85.6562H810.159L809.889 83.417L807.903 83.6562ZM807.903 146.597L809.888 146.844L810.167 144.607L807.913 144.597L807.903 146.597ZM764.352 146.398L764.361 144.398L762.693 144.39L762.386 146.03L764.352 146.398ZM764.352 83.6562L762.373 83.9465L762.624 85.6562H764.352V83.6562ZM809.889 83.417C806.998 59.4285 796.449 40.4238 780.519 27.4313C764.605 14.4525 743.453 7.57954 719.509 7.57954V11.5795C742.694 11.5795 762.907 18.2293 777.991 30.5311C793.058 42.8191 803.141 60.8527 805.918 83.8955L809.889 83.417ZM719.509 7.57954C692.129 7.57954 667.869 17.2555 650.46 35.5184C633.052 53.7788 622.651 80.4561 622.651 114.182H626.651C626.651 81.2882 636.781 55.6644 653.355 38.2784C669.926 20.8951 693.096 11.5795 719.509 11.5795V7.57954ZM622.651 114.182C622.651 147.8 632.874 174.477 650.194 192.766C667.52 211.06 691.783 220.784 719.509 220.784V216.784C692.745 216.784 669.58 207.418 653.098 190.015C636.612 172.608 626.651 146.984 626.651 114.182H622.651ZM719.509 220.784C772.736 220.784 805.092 185.314 809.888 146.844L805.919 146.349C801.368 182.85 770.685 216.784 719.509 216.784V220.784ZM807.913 144.597L764.361 144.398L764.343 148.398L807.894 148.597L807.913 144.597ZM762.386 146.03C760.432 156.467 755.384 164.594 748.148 170.127C740.897 175.671 731.327 178.702 720.205 178.702V182.702C732.051 182.702 742.516 179.468 750.578 173.304C758.654 167.129 764.195 158.104 766.318 146.766L762.386 146.03ZM720.205 178.702C705.278 178.702 692.898 173.181 684.207 162.51C675.477 151.791 670.301 135.662 670.301 114.182H666.301C666.301 136.253 671.616 153.384 681.106 165.036C690.636 176.738 704.208 182.702 720.205 182.702V178.702ZM670.301 114.182C670.301 93.3041 675.4 77.1665 684.141 66.2906C692.842 55.4645 705.3 49.6619 720.503 49.6619V45.6619C704.186 45.6619 690.543 51.9403 681.023 63.7847C671.544 75.5793 666.301 92.7016 666.301 114.182H670.301ZM720.503 49.6619C731.898 49.6619 741.574 52.9518 748.77 58.8196C755.957 64.6793 760.799 73.2119 762.373 83.9465L766.331 83.366C764.624 71.7285 759.324 62.2639 751.298 55.7195C743.281 49.1831 732.673 45.6619 720.503 45.6619V49.6619ZM764.352 85.6562H807.903V81.6562H764.352V85.6562ZM906.987 220.983C930.63 220.983 949.977 212.878 963.404 198.616C976.819 184.367 984.158 164.155 984.158 140.233H980.158C980.158 163.342 973.079 182.505 960.492 195.874C947.918 209.229 929.679 216.983 906.987 216.983V220.983ZM984.158 140.233C984.158 116.164 976.821 95.9018 963.405 81.6396C949.976 67.3635 930.629 59.2841 906.987 59.2841V63.2841C929.681 63.2841 947.919 71.0144 960.491 84.3803C973.077 97.7601 980.158 116.972 980.158 140.233H984.158ZM906.987 59.2841C883.346 59.2841 863.998 67.3635 850.57 81.6396C837.154 95.9018 829.817 116.164 829.817 140.233H833.817C833.817 116.972 840.897 97.7601 853.483 84.3803C866.056 71.0144 884.294 63.2841 906.987 63.2841V59.2841ZM829.817 140.233C829.817 164.155 837.156 184.367 850.57 198.616C863.998 212.878 883.344 220.983 906.987 220.983V216.983C884.295 216.983 866.056 209.229 853.482 195.874C840.896 182.505 833.817 163.342 833.817 140.233H829.817ZM907.186 184.17C897.215 184.17 889.745 179.65 884.683 171.947C879.563 164.155 876.871 153.025 876.871 139.935H872.871C872.871 153.492 875.647 165.479 881.34 174.144C887.092 182.896 895.779 188.17 907.186 188.17V184.17ZM876.871 139.935C876.871 126.844 879.563 115.688 884.685 107.87C889.749 100.141 897.219 95.5994 907.186 95.5994V91.5994C895.775 91.5994 887.088 96.9021 881.339 105.678C875.647 114.366 872.871 126.377 872.871 139.935H876.871ZM907.186 95.5994C916.94 95.5994 924.314 100.127 929.335 107.863C934.411 115.684 937.104 126.845 937.104 139.935H941.104C941.104 126.377 938.327 114.37 932.69 105.685C926.998 96.9154 918.412 91.5994 907.186 91.5994V95.5994ZM937.104 139.935C937.104 153.024 934.411 164.159 929.336 171.954C924.317 179.664 916.944 184.17 907.186 184.17V188.17C918.408 188.17 926.994 182.883 932.689 174.137C938.327 165.476 941.104 153.493 941.104 139.935H937.104ZM1009.7 216H1007.7V218H1009.7V216ZM1052.06 216V218H1054.06V216H1052.06ZM1052.06 63.2727H1054.06V61.2727H1052.06V63.2727ZM1009.7 63.2727V61.2727H1007.7V63.2727H1009.7ZM1009.7 218H1052.06V214H1009.7V218ZM1054.06 216V63.2727H1050.06V216H1054.06ZM1052.06 61.2727H1009.7V65.2727H1052.06V61.2727ZM1007.7 63.2727V216H1011.7V63.2727H1007.7ZM1030.98 45.5852C1044.58 45.5852 1055.95 35.1707 1055.95 22.1079H1051.95C1051.95 32.71 1042.63 41.5852 1030.98 41.5852V45.5852ZM1055.95 22.1079C1055.95 9.13883 1044.57 -1.2699 1030.98 -1.2699V2.7301C1042.64 2.7301 1051.95 11.6112 1051.95 22.1079H1055.95ZM1030.98 -1.2699C1017.48 -1.2699 1006.11 9.14426 1006.11 22.1079H1010.11C1010.11 11.6057 1019.42 2.7301 1030.98 2.7301V-1.2699ZM1006.11 22.1079C1006.11 35.1653 1017.47 45.5852 1030.98 45.5852V41.5852C1019.43 41.5852 1010.11 32.7154 1010.11 22.1079H1006.11ZM1128.35 127.705L1126.35 127.694V127.705H1128.35ZM1184.43 126.312L1182.43 126.302V126.312H1184.43ZM1184.43 216H1182.43V218H1184.43V216ZM1226.78 216V218H1228.78V216H1226.78ZM1128.15 90.2188V92.2188H1129.52L1130.01 90.9381L1128.15 90.2188ZM1126.36 90.2188H1124.36V92.2188H1126.36V90.2188ZM1126.36 63.2727H1128.36V61.2727H1126.36V63.2727ZM1085.99 63.2727V61.2727H1083.99V63.2727H1085.99ZM1085.99 216H1083.99V218H1085.99V216ZM1128.35 216V218H1130.35V216H1128.35ZM1130.35 127.715C1130.4 118.265 1133.23 110.989 1137.89 106.089C1142.54 101.199 1149.19 98.483 1157.28 98.483V94.483C1148.27 94.483 1140.5 97.5341 1134.99 103.333C1129.48 109.122 1126.4 117.456 1126.35 127.694L1130.35 127.715ZM1157.28 98.483C1165.33 98.483 1171.56 101.105 1175.79 105.736C1180.04 110.389 1182.47 117.31 1182.43 126.302L1186.43 126.323C1186.48 116.621 1183.84 108.628 1178.74 103.04C1173.62 97.4293 1166.24 94.483 1157.28 94.483V98.483ZM1182.43 126.312V216H1186.43V126.312H1182.43ZM1184.43 218H1226.78V214H1184.43V218ZM1228.78 216V118.756H1224.78V216H1228.78ZM1228.78 118.756C1228.78 100.571 1223.45 85.6774 1213.83 75.3112C1204.21 64.93 1190.47 59.2841 1174.09 59.2841V63.2841C1189.52 63.2841 1202.13 68.5756 1210.9 78.0311C1219.68 87.5016 1224.78 101.344 1224.78 118.756H1228.78ZM1174.09 59.2841C1150.69 59.2841 1133.47 70.8404 1126.28 89.4994L1130.01 90.9381C1136.54 74.0005 1152.14 63.2841 1174.09 63.2841V59.2841ZM1128.15 88.2188H1126.36V92.2188H1128.15V88.2188ZM1128.36 90.2188V63.2727H1124.36V90.2188H1128.36ZM1126.36 61.2727H1085.99V65.2727H1126.36V61.2727ZM1083.99 63.2727V216H1087.99V63.2727H1083.99ZM1085.99 218H1128.35V214H1085.99V218ZM1130.35 216V127.705H1126.35V216H1130.35ZM1387.24 106.824L1387.37 108.82L1389.51 108.688L1389.23 106.558L1387.24 106.824ZM1257.48 108.812L1259.48 108.821V108.813V108.806L1257.48 108.812ZM1301.63 152.463L1301.24 154.424L1301.24 154.425L1301.63 152.463ZM1328.08 157.733L1328.48 155.772L1328.47 155.772L1328.08 157.733ZM1347.67 172.946L1349.67 172.99L1349.67 172.942L1349.67 172.894L1347.67 172.946ZM1295.07 169.565L1297.03 169.158L1296.68 167.478L1294.96 167.568L1295.07 169.565ZM1253.41 171.753L1253.3 169.756L1251.13 169.87L1251.43 172.022L1253.41 171.753ZM1390.72 168.67L1392.72 168.677V168.669V168.661L1390.72 168.67ZM1346.58 127.307L1346.98 125.347L1346.97 125.346L1346.58 127.307ZM1318.93 121.739L1318.51 123.693L1318.52 123.696L1318.54 123.699L1318.93 121.739ZM1299.54 106.426L1301.54 106.453L1301.54 106.429L1301.54 106.404L1299.54 106.426ZM1348.46 109.21L1346.51 109.625L1346.87 111.312L1348.59 111.206L1348.46 109.21ZM1389.23 106.558C1387.27 91.9797 1380.39 80.0871 1368.95 71.8769C1357.55 63.6964 1341.79 59.2841 1322.21 59.2841V63.2841C1341.22 63.2841 1356.09 67.5721 1366.61 75.1266C1377.1 82.6515 1383.44 93.5288 1385.26 107.09L1389.23 106.558ZM1322.21 59.2841C1302.4 59.2841 1285.74 63.8691 1273.98 72.3923C1262.17 80.9618 1255.43 93.4412 1255.48 108.819L1259.48 108.806C1259.44 94.752 1265.53 83.4672 1276.33 75.6304C1287.2 67.7474 1302.95 63.2841 1322.21 63.2841V59.2841ZM1255.48 108.804C1255.43 120.7 1259.17 130.658 1266.92 138.392C1274.62 146.077 1286.1 151.397 1301.24 154.424L1302.02 150.502C1287.33 147.564 1276.69 142.493 1269.75 135.561C1262.85 128.679 1259.44 119.794 1259.48 108.821L1255.48 108.804ZM1301.24 154.425L1327.69 159.694L1328.47 155.772L1302.02 150.502L1301.24 154.425ZM1327.69 159.694C1334.22 161.011 1338.72 162.819 1341.56 165.05C1344.31 167.204 1345.59 169.784 1345.67 172.998L1349.67 172.894C1349.55 168.452 1347.69 164.768 1344.03 161.9C1340.47 159.11 1335.26 157.14 1328.48 155.772L1327.69 159.694ZM1345.67 172.902C1345.59 176.619 1343.55 179.936 1339.65 182.405C1335.72 184.895 1329.95 186.457 1322.81 186.457V190.457C1330.48 190.457 1337.05 188.788 1341.79 185.785C1346.57 182.76 1349.55 178.321 1349.67 172.99L1345.67 172.902ZM1322.81 186.457C1315.52 186.457 1309.66 184.897 1305.36 182.012C1301.1 179.154 1298.22 174.897 1297.03 169.158L1293.11 169.973C1294.5 176.663 1297.94 181.852 1303.13 185.333C1308.27 188.786 1314.99 190.457 1322.81 190.457V186.457ZM1294.96 167.568L1253.3 169.756L1253.51 173.75L1295.17 171.563L1294.96 167.568ZM1251.43 172.022C1253.49 187.183 1260.99 199.494 1273.24 207.974C1285.43 216.424 1302.2 220.983 1322.71 220.983V216.983C1302.75 216.983 1286.86 212.543 1275.51 204.686C1264.22 196.859 1257.3 185.556 1255.39 171.483L1251.43 172.022ZM1322.71 220.983C1342.82 220.983 1360.24 215.858 1372.7 206.739C1385.21 197.59 1392.67 184.439 1392.72 168.677L1388.72 168.664C1388.68 183.03 1381.92 195.035 1370.34 203.511C1358.72 212.016 1342.18 216.983 1322.71 216.983V220.983ZM1392.72 168.661C1392.67 157.138 1388.86 147.764 1381.09 140.522C1373.39 133.347 1361.97 128.417 1346.98 125.347L1346.17 129.266C1360.81 132.262 1371.42 136.977 1378.36 143.448C1385.23 149.854 1388.68 158.129 1388.72 168.679L1392.72 168.661ZM1346.97 125.346L1319.33 119.778L1318.54 123.699L1346.18 129.267L1346.97 125.346ZM1319.36 119.784C1312.35 118.266 1307.85 116.361 1305.14 114.138C1302.54 112.015 1301.5 109.546 1301.54 106.453L1297.54 106.399C1297.49 110.664 1299.03 114.31 1302.6 117.233C1306.05 120.056 1311.29 122.129 1318.51 123.693L1319.36 119.784ZM1301.54 106.404C1301.5 102.703 1303.54 99.5038 1307.33 97.1346C1311.15 94.7467 1316.62 93.3125 1322.91 93.3125V89.3125C1316.08 89.3125 1309.82 90.8613 1305.21 93.7432C1300.57 96.644 1297.48 101.001 1297.54 106.448L1301.54 106.404ZM1322.91 93.3125C1336.8 93.3125 1344.64 100.815 1346.51 109.625L1350.42 108.795C1348.11 97.9182 1338.45 89.3125 1322.91 89.3125V93.3125ZM1348.59 111.206L1387.37 108.82L1387.12 104.828L1348.34 107.214L1348.59 111.206Z" fill="url(#paint0_linear_2_39)"/>
<defs>
<linearGradient id="paint0_linear_2_39" x1="693.5" y1="-55" x2="693.5" y2="284" gradientUnits="userSpaceOnUse">
<stop stop-color="white"/>
<stop offset="1" stop-color="white" stop-opacity="0"/>
</linearGradient>
</defs>
</svg>
