<svg width="19" height="20" viewBox="0 0 19 20" fill="none" xmlns="http://www.w3.org/2000/svg">
<path d="M17.6875 3.93012L9.30174 0.0597744C9.21683 0.0204768 9.12438 0.00012207 9.03082 0.00012207C8.93725 0.00012207 8.84481 0.0204768 8.75989 0.0597744L0.374136 3.93012C0.262166 3.98194 0.167407 4.06479 0.101094 4.16883C0.0347808 4.27287 -0.000303322 4.39375 1.97564e-06 4.51713V15.4831C-0.000303322 15.6065 0.0347808 15.7274 0.101094 15.8314C0.167407 15.9355 0.262166 16.0183 0.374136 16.0701L8.75989 19.9405C8.84481 19.9798 8.93725 20.0001 9.03082 20.0001C9.12438 20.0001 9.21683 19.9798 9.30174 19.9405L17.6875 16.0701C17.7995 16.0183 17.8942 15.9355 17.9605 15.8314C18.0269 15.7274 18.0619 15.6065 18.0616 15.4831V4.51713C18.0619 4.39375 18.0269 4.27287 17.9605 4.16883C17.8942 4.06479 17.7995 3.98194 17.6875 3.93012V3.93012ZM9.03082 7.67791L2.18675 4.51713L9.03082 1.35634L15.8749 4.51713L9.03082 7.67791ZM16.7715 15.0703L9.67588 18.3472V8.80031L16.7715 5.52342V15.0703Z" fill="#BFDFE9"/>
</svg>
