<svg width="18" height="16" viewBox="0 0 18 16" fill="none" xmlns="http://www.w3.org/2000/svg">
<path fill-rule="evenodd" clip-rule="evenodd" d="M0.25 8C0.25 7.58579 0.585786 7.25 1 7.25L16.9996 7.25C17.4138 7.25 17.7496 7.58579 17.7496 8C17.7496 8.41421 17.4138 8.75 16.9996 8.75H1C0.585786 8.75 0.25 8.41421 0.25 8ZM3.53307 15C3.53307 14.5858 3.86886 14.25 4.28307 14.25L17 14.25C17.4142 14.25 17.75 14.5858 17.75 15C17.75 15.4142 17.4142 15.75 17 15.75L4.28307 15.75C3.86886 15.75 3.53307 15.4142 3.53307 15ZM9.22186 1C9.22186 0.585787 9.55765 0.25 9.97186 0.25L17 0.25C17.4142 0.25 17.75 0.585787 17.75 1C17.75 1.41421 17.4142 1.75 17 1.75L9.97186 1.75C9.55765 1.75 9.22186 1.41421 9.22186 1Z" fill="#363853"/>
</svg>
