<svg width="20" height="18" viewBox="0 0 20 18" fill="none" xmlns="http://www.w3.org/2000/svg">
<path d="M10.4605 5.74878C10.356 5.89216 10.2469 6.03313 10.1185 6.16066L8.4122 7.85435C8.28928 7.97636 8.15248 8.07838 8.01498 8.17868L16.2834 16.9701C17.1126 17.8517 18.5126 17.8755 19.3713 17.0228C20.23 16.1701 20.206 14.7808 19.3182 13.9577L10.4605 5.74878Z" fill="#F4900C"/>
<path d="M0.163336 6.68458L0.949104 5.9046C1.16612 5.68918 1.51786 5.68918 1.73487 5.9046L2.12758 6.29442L3.13106 5.29833C2.93558 4.56385 3.11856 3.75078 3.69877 3.17484L5.26996 1.61523C7.43942 -0.538247 10.9571 -0.538247 13.127 1.61523L9.98423 3.17484V3.82109C9.98423 4.40599 9.7502 4.96711 9.33318 5.38071L7.62692 7.0744C7.04671 7.65034 6.22761 7.83197 5.48767 7.63793L4.4842 8.63401L4.87691 9.02383C5.09392 9.23925 5.09392 9.58839 4.87691 9.80381L4.09114 10.5838C3.87412 10.7992 3.52238 10.7992 3.30537 10.5838L0.162642 7.46422C-0.0536795 7.24914 -0.0536795 6.9 0.163336 6.68458Z" fill="#66757F"/>
</svg>
