<svg width="22" height="22" viewBox="0 0 22 22" fill="none" xmlns="http://www.w3.org/2000/svg">
<path d="M11 0C4.92545 0 0 4.92545 0 11C0 17.0746 4.92545 22 11 22C17.0746 22 22 17.0746 22 11C22 4.92545 17.0746 0 11 0ZM11 20.1339C5.9567 20.1339 1.86607 16.0433 1.86607 11C1.86607 5.9567 5.9567 1.86607 11 1.86607C16.0433 1.86607 20.1339 5.9567 20.1339 11C20.1339 16.0433 16.0433 20.1339 11 20.1339Z" fill="white"/>
<path d="M10 7.17857C10 7.49115 10.1317 7.79092 10.3661 8.01195C10.6005 8.23297 10.9185 8.35714 11.25 8.35714C11.5815 8.35714 11.8995 8.23297 12.1339 8.01195C12.3683 7.79092 12.5 7.49115 12.5 7.17857C12.5 6.86599 12.3683 6.56622 12.1339 6.3452C11.8995 6.12417 11.5815 6 11.25 6C10.9185 6 10.6005 6.12417 10.3661 6.3452C10.1317 6.56622 10 6.86599 10 7.17857V7.17857ZM11.875 9.92857H10.625C10.5104 9.92857 10.4167 10.017 10.4167 10.125V16.8036C10.4167 16.9116 10.5104 17 10.625 17H11.875C11.9896 17 12.0833 16.9116 12.0833 16.8036V10.125C12.0833 10.017 11.9896 9.92857 11.875 9.92857Z" fill="white"/>
</svg>
