<svg width="22" height="26" viewBox="0 0 22 26" fill="none" xmlns="http://www.w3.org/2000/svg">
<path d="M11 26.0001C10.2705 25.9967 9.57166 25.7221 9.05453 25.2356C8.53739 24.7491 8.24346 24.0898 8.23625 23.4001H13.7362C13.7392 23.7477 13.6691 24.0924 13.53 24.4141C13.3522 24.7999 13.0799 25.1402 12.7357 25.4069C12.3914 25.6736 11.985 25.8591 11.55 25.9481H11.4854C11.3256 25.9796 11.1631 25.997 11 26.0001ZM22 22.1001H0V19.5001L2.75 18.2001V11.0501C2.67756 9.21598 3.11566 7.39599 4.0205 5.77212C4.46578 5.02757 5.07297 4.38074 5.80202 3.87431C6.53107 3.36788 7.36541 3.01335 8.25 2.83412V0.00012207H13.75V2.83412C17.2961 3.63232 19.25 6.54952 19.25 11.0501V18.2001L22 19.5001V22.1001Z" fill="#FFB636"/>
</svg>
