<svg width="18" height="18" viewBox="0 0 18 18" fill="none" xmlns="http://www.w3.org/2000/svg">
<path fill-rule="evenodd" clip-rule="evenodd" d="M-0.000976562 6.88234H17.999V7.94116H-0.000976562V6.88234ZM-0.000976562 5.82352H7.41079L8.99902 6.88234L10.5873 5.82352H17.999V6.88234H-0.000976562V5.82352Z" fill="white"/>
<path fill-rule="evenodd" clip-rule="evenodd" d="M1.05762 0H3.70468L8.99879 6.88235H6.35173L1.05762 0ZM13.7635 0H16.4106L11.6459 6.88235H8.99879L13.7635 0Z" fill="white"/>
<path fill-rule="evenodd" clip-rule="evenodd" d="M-0.000976562 11.1177H17.999V10.0588H-0.000976562V11.1177ZM-0.000976562 12.1765H7.41079L8.99902 11.1177L10.5873 12.1765H17.999V11.1177H-0.000976562V12.1765Z" fill="white"/>
<path fill-rule="evenodd" clip-rule="evenodd" d="M1.05762 18H3.70468L8.99879 11.1177H6.35173L1.05762 18ZM13.7635 18H16.4106L11.6459 11.1177H8.99879L13.7635 18Z" fill="white"/>
</svg>
